<svg width="180" height="42" viewBox="0 0 180 42" fill="none" xmlns="http://www.w3.org/2000/svg">
<path d="M47.2255 33.8401C49.5229 45.1632 38.8428 32.8107 24.2513 32.8107C9.22957 30.9707 -1.15106 43.5885 2.30986 36.7061C2.30986 25.336 9.64031 0 24.2318 0C38.0777 1.14706 47.2255 22.47 47.2255 33.8401Z" fill="white"/>
<path d="M6.96559 27.5028C5.00492 31.105 3.46202 32.0245 1.66908 38.7574C1.46521 37.7868 -3.44072 31.7022 4.59019 16.7708C13.2433 2.54858 18.2956 0.0662591 23.857 0.0662631C23.857 11.2275 10.1704 22.6127 6.96559 27.5028Z" fill="#5A19A0"/>
<path d="M40.2016 26.7935C42.1623 30.3957 44.9989 33.2649 46.5882 38.8134C46.792 37.8428 54.3406 33.2184 46.3097 18.287C37.6565 4.06475 28.8339 -0.363062 24.3993 0.0289038C27.5519 11.3395 36.8082 23.0793 40.2016 26.7935Z" fill="#5A19A0"/>
<path d="M46.3097 38.7574C46.3097 38.8914 36.3839 39 24.1397 39C11.8956 39 1.96973 38.8914 1.96973 38.7574C1.96973 38.6234 14.1482 23.418 23.857 21.7942C29.3241 22.3542 46.3097 38.6234 46.3097 38.7574Z" fill="#5A19A0"/>
<path d="M26.8832 19.4258C26.8832 21.1255 25.5117 20.5648 24.0511 20.5648C19.9072 20.5648 21.4898 17.8842 21.9896 15.9455C21.9896 14.2008 24.072 10.59 24.6134 10.8081C26.074 10.8081 27.4247 17.5692 26.8832 19.4258Z" fill="#5A19A0"/>
<path d="M55.12 22.51H52.54V19.03H55.12V18.04C55.12 16.42 55.63 15.16 56.65 14.26C57.69 13.34 59.13 12.88 60.97 12.88H63.13V16.36H61.03C60.39 16.36 59.92 16.5 59.62 16.78C59.34 17.06 59.2 17.5 59.2 18.1V19.03H62.8V22.51H59.2V34H55.12V22.51ZM65.1072 19.03H68.8872V20.95C69.2672 20.37 69.8072 19.9 70.5072 19.54C71.2272 19.16 71.9772 18.97 72.7572 18.97H74.7972V22.51H72.7572C71.6972 22.51 70.8372 22.83 70.1772 23.47C69.5172 24.11 69.1872 24.93 69.1872 25.93V34H65.1072V19.03ZM79.1716 17.62C78.3916 17.62 77.7616 17.4 77.2816 16.96C76.8216 16.5 76.5916 15.9 76.5916 15.16C76.5916 14.42 76.8216 13.83 77.2816 13.39C77.7616 12.93 78.3916 12.7 79.1716 12.7C79.9516 12.7 80.5716 12.93 81.0316 13.39C81.5116 13.83 81.7516 14.42 81.7516 15.16C81.7516 15.9 81.5116 16.5 81.0316 16.96C80.5716 17.4 79.9516 17.62 79.1716 17.62ZM77.1316 19.03H81.2116V34H77.1316V19.03ZM102.334 18.79C103.854 18.79 105.074 19.29 105.994 20.29C106.914 21.27 107.374 22.56 107.374 24.16V34H103.294V24.16C103.294 23.6 103.164 23.16 102.904 22.84C102.644 22.5 102.304 22.33 101.884 22.33H100.594C100.034 22.33 99.5441 22.54 99.1241 22.96C98.7041 23.36 98.4441 23.9 98.3441 24.58V34H94.2641V24.19C94.2641 23.63 94.1341 23.18 93.8741 22.84C93.6141 22.5 93.2741 22.33 92.8541 22.33H91.6841C91.1041 22.33 90.5941 22.59 90.1541 23.11C89.7141 23.63 89.4341 24.31 89.3141 25.15V34H85.2341V19.03H89.0141V20.77C89.3741 20.17 89.8341 19.69 90.3941 19.33C90.9741 18.97 91.5541 18.79 92.1341 18.79H93.8141C94.5341 18.79 95.1841 18.98 95.7641 19.36C96.3641 19.74 96.8341 20.27 97.1741 20.95C97.6141 20.27 98.1341 19.74 98.7341 19.36C99.3541 18.98 100.004 18.79 100.684 18.79H102.334ZM116.454 34.24C115.194 34.24 114.074 34 113.094 33.52C112.134 33.02 111.384 32.32 110.844 31.42C110.324 30.52 110.064 29.48 110.064 28.3V24.79C110.064 23.61 110.334 22.57 110.874 21.67C111.414 20.75 112.164 20.04 113.124 19.54C114.104 19.04 115.224 18.79 116.484 18.79H119.184C120.444 18.79 121.554 19.04 122.514 19.54C123.494 20.04 124.254 20.75 124.794 21.67C125.334 22.57 125.604 23.61 125.604 24.79V28.3C125.604 29.48 125.334 30.52 124.794 31.42C124.254 32.32 123.494 33.02 122.514 33.52C121.554 34 120.434 34.24 119.154 34.24H116.454ZM119.094 30.73C119.834 30.73 120.424 30.48 120.864 29.98C121.304 29.46 121.524 28.79 121.524 27.97V25.06C121.524 24.24 121.304 23.58 120.864 23.08C120.424 22.56 119.844 22.3 119.124 22.3H116.544C115.824 22.3 115.244 22.56 114.804 23.08C114.364 23.58 114.144 24.24 114.144 25.06V27.97C114.144 28.79 114.364 29.46 114.804 29.98C115.244 30.48 115.814 30.73 116.514 30.73H119.094ZM135.706 34.24C135.086 34.24 134.456 34.04 133.816 33.64C133.176 33.24 132.656 32.72 132.256 32.08V34H128.476V13H132.556V20.2C132.956 19.78 133.446 19.44 134.026 19.18C134.626 18.92 135.196 18.79 135.736 18.79H137.836C138.996 18.79 140.016 19.04 140.896 19.54C141.796 20.02 142.486 20.71 142.966 21.61C143.466 22.51 143.716 23.55 143.716 24.73V28.15C143.716 29.35 143.466 30.41 142.966 31.33C142.466 32.25 141.766 32.97 140.866 33.49C139.966 33.99 138.936 34.24 137.776 34.24H135.706ZM137.296 30.67C137.996 30.67 138.556 30.41 138.976 29.89C139.416 29.37 139.636 28.69 139.636 27.85V25.03C139.636 24.23 139.426 23.59 139.006 23.11C138.586 22.61 138.036 22.36 137.356 22.36H135.496C134.696 22.36 134.026 22.64 133.486 23.2C132.946 23.76 132.636 24.5 132.556 25.42V28C132.696 28.8 133.016 29.45 133.516 29.95C134.036 30.43 134.646 30.67 135.346 30.67H137.296ZM149.162 17.62C148.382 17.62 147.752 17.4 147.272 16.96C146.812 16.5 146.582 15.9 146.582 15.16C146.582 14.42 146.812 13.83 147.272 13.39C147.752 12.93 148.382 12.7 149.162 12.7C149.942 12.7 150.562 12.93 151.022 13.39C151.502 13.83 151.742 14.42 151.742 15.16C151.742 15.9 151.502 16.5 151.022 16.96C150.562 17.4 149.942 17.62 149.162 17.62ZM147.122 19.03H151.202V34H147.122V19.03ZM160.384 34C158.604 34 157.294 33.63 156.454 32.89C155.634 32.13 155.224 30.96 155.224 29.38V13H159.304V29.14C159.304 29.62 159.414 29.97 159.634 30.19C159.854 30.41 160.204 30.52 160.684 30.52H162.304V34H160.384ZM169.921 34.24C168.661 34.24 167.541 34.01 166.561 33.55C165.601 33.07 164.851 32.41 164.311 31.57C163.771 30.71 163.501 29.73 163.501 28.63V24.76C163.501 23.58 163.771 22.54 164.311 21.64C164.851 20.74 165.601 20.04 166.561 19.54C167.541 19.04 168.661 18.79 169.921 18.79H172.321C174.241 18.79 175.781 19.33 176.941 20.41C178.101 21.49 178.681 22.93 178.681 24.73V27.91H167.581V28.63C167.581 29.29 167.791 29.82 168.211 30.22C168.631 30.62 169.201 30.82 169.921 30.82H172.261C172.961 30.82 173.521 30.67 173.941 30.37C174.381 30.05 174.601 29.64 174.601 29.14H178.621C178.621 30.14 178.351 31.03 177.811 31.81C177.271 32.59 176.511 33.19 175.531 33.61C174.571 34.03 173.461 34.24 172.201 34.24H169.921ZM174.661 24.97V24.73C174.661 23.95 174.451 23.33 174.031 22.87C173.611 22.39 173.051 22.15 172.351 22.15H169.921C169.201 22.15 168.621 22.4 168.181 22.9C167.741 23.4 167.521 24.06 167.521 24.88V24.97H174.661Z" fill="white"/>
</svg>
